<svg width="87" height="55" viewBox="0 0 87 55" fill="none" xmlns="http://www.w3.org/2000/svg">
<path d="M51.5 10.5C51.5 16.0012 46.8212 20.5 41 20.5C35.1788 20.5 30.5 16.0012 30.5 10.5C30.5 4.99882 35.1788 0.5 41 0.5C46.8212 0.5 51.5 4.99882 51.5 10.5Z" fill="white" stroke="#757575"/>
<path d="M79.5 43.5C79.5 49.0012 74.8212 53.5 69 53.5C63.1788 53.5 58.5 49.0012 58.5 43.5C58.5 37.9988 63.1788 33.5 69 33.5C74.8212 33.5 79.5 37.9988 79.5 43.5Z" fill="white" stroke="#757575"/>
<path d="M23.5 43.5C23.5 49.0012 18.8212 53.5 13 53.5C7.17884 53.5 2.5 49.0012 2.5 43.5C2.5 37.9988 7.17884 33.5 13 33.5C18.8212 33.5 23.5 37.9988 23.5 43.5Z" fill="white" stroke="#757575"/>
<line x1="34.3221" y1="18.3825" x2="15.3221" y2="34.3825" stroke="black"/>
<line x1="48.342" y1="18.6352" x2="64.342" y2="33.6352" stroke="black"/>
</svg>
