<svg width="95" height="58" viewBox="0 0 95 58" fill="none" xmlns="http://www.w3.org/2000/svg">
<path d="M53.5 10.5C53.5 16.0012 48.8212 20.5 43 20.5C37.1788 20.5 32.5 16.0012 32.5 10.5C32.5 4.99882 37.1788 0.5 43 0.5C48.8212 0.5 53.5 4.99882 53.5 10.5Z" fill="white" stroke="#757575"/>
<path d="M81.5 43.5C81.5 49.0012 76.8212 53.5 71 53.5C65.1788 53.5 60.5 49.0012 60.5 43.5C60.5 37.9988 65.1788 33.5 71 33.5C76.8212 33.5 81.5 37.9988 81.5 43.5Z" fill="white" stroke="#757575"/>
<path d="M25.5 43.5C25.5 49.0012 20.8212 53.5 15 53.5C9.17884 53.5 4.5 49.0012 4.5 43.5C4.5 37.9988 9.17884 33.5 15 33.5C20.8212 33.5 25.5 37.9988 25.5 43.5Z" fill="white" stroke="#757575"/>
<line x1="36.3221" y1="18.3825" x2="17.3221" y2="34.3825" stroke="black"/>
<line x1="50.342" y1="18.6352" x2="66.342" y2="33.6352" stroke="black"/>
<line x1="26" y1="43.5" x2="61" y2="43.5" stroke="black"/>
</svg>
